<?xml version="1.0" encoding="UTF-8" standalone="no"?>
<!-- Created with Inkscape (http://www.inkscape.org/) -->

<svg
   width="32"
   height="32"
   viewBox="0 0 32 32.000002"
   version="1.1"
   id="svg1"
   xml:space="preserve"
   inkscape:export-filename="bitmap.png"
   inkscape:export-xdpi="9600"
   inkscape:export-ydpi="9600"
   inkscape:version="1.4 (86a8ad7, 2024-10-11)"
   sodipodi:docname="goboscript.svg"
   xmlns:inkscape="http://www.inkscape.org/namespaces/inkscape"
   xmlns:sodipodi="http://sodipodi.sourceforge.net/DTD/sodipodi-0.dtd"
   xmlns:xlink="http://www.w3.org/1999/xlink"
   xmlns="http://www.w3.org/2000/svg"
   xmlns:svg="http://www.w3.org/2000/svg"><sodipodi:namedview
     id="namedview1"
     pagecolor="#ffffff"
     bordercolor="#000000"
     borderopacity="0.25"
     inkscape:showpageshadow="2"
     inkscape:pageopacity="0.0"
     inkscape:pagecheckerboard="0"
     inkscape:deskcolor="#d1d1d1"
     inkscape:document-units="px"
     inkscape:zoom="11.772098"
     inkscape:cx="17.286639"
     inkscape:cy="16.734486"
     inkscape:window-width="1440"
     inkscape:window-height="756"
     inkscape:window-x="-6"
     inkscape:window-y="-6"
     inkscape:window-maximized="1"
     inkscape:current-layer="layer1"><sodipodi:guide
       position="0,16"
       orientation="0,16"
       id="guide1"
       inkscape:locked="false" /><sodipodi:guide
       position="32.000001,0"
       orientation="16,0"
       id="guide2"
       inkscape:locked="false" /><sodipodi:guide
       position="32.000001,0"
       orientation="0,-16"
       id="guide3"
       inkscape:locked="false" /><sodipodi:guide
       position="0,-4.5367433e-07"
       orientation="-16,0"
       id="guide4"
       inkscape:locked="false" /></sodipodi:namedview><defs
     id="defs1"><linearGradient
       id="linearGradient5"
       inkscape:collect="always"><stop
         style="stop-color:#0b1717;stop-opacity:1;"
         offset="0"
         id="stop5" /><stop
         style="stop-color:#38848b;stop-opacity:1;"
         offset="1"
         id="stop6" /></linearGradient><linearGradient
       inkscape:collect="always"
       xlink:href="#linearGradient5"
       id="linearGradient6"
       x1="0"
       y1="4.9999994e-07"
       x2="0"
       y2="16"
       gradientUnits="userSpaceOnUse" /></defs><g
     inkscape:label="Layer 1"
     inkscape:groupmode="layer"
     id="layer1"><g
       id="g2"
       transform="matrix(2.0000001,0,0,2.0000003,0,-2.6e-6)"
       style="stroke-width:0.5"><g
         id="g1"
         style="stroke-width:0.5"><path
           id="rect4"
           style="opacity:1;fill:url(#linearGradient6);stroke-width:2.5;stroke-linecap:round;stroke-linejoin:round;paint-order:stroke fill markers"
           d="M 4.1623845,4.9999994e-7 H 11.837615 C 14.143576,4.9999994e-7 15.999999,1.856424 15.999999,4.162385 V 11.837615 C 15.999999,14.143576 14.143576,16 11.837615,16 H 4.1623845 C 1.8564235,16 0,14.143576 0,11.837615 V 4.162385 C 0,1.856424 1.8564235,4.9999994e-7 4.1623845,4.9999994e-7 Z" /><path
           d="M 5.5382658,15.892585 Q 4.5894411,15.892585 3.6926067,15.619635 Q 2.8087699,15.359683 2.2498731,14.865775 L 2.8477627,13.903952 Q 3.3286739,14.319875 4.0305443,14.553832 Q 4.7324147,14.800787 5.499273,14.800787 Q 6.7210474,14.800787 7.2929418,14.228892 Q 7.8648362,13.656998 7.8648362,12.487214 V 11.031483 L 7.9948122,9.6667348 L 7.9298242,8.2889892 V 6.4043373 H 9.1126057 V 12.357238 Q 9.1126057,14.176902 8.2027738,15.034743 Q 7.2929418,15.892585 5.5382658,15.892585 Z M 5.3822946,13.007118 Q 4.3814795,13.007118 3.5886259,12.591195 Q 2.8087699,12.162274 2.3408563,11.408413 Q 1.8859403,10.654552 1.8859403,9.6667348 Q 1.8859403,8.6659196 2.3408563,7.9250564 Q 2.8087699,7.1711957 3.5886259,6.7552725 Q 4.3814795,6.3393493 5.3822946,6.3393493 Q 6.2661314,6.3393493 6.993997,6.7032821 Q 7.7218626,7.0542173 8.1507834,7.7950804 Q 8.5927017,8.5359436 8.5927017,9.6667348 Q 8.5927017,10.784528 8.1507834,11.525392 Q 7.7218626,12.266255 6.993997,12.643185 Q 6.2661314,13.007118 5.3822946,13.007118 Z M 5.5252682,11.91532 Q 6.214141,11.91532 6.7470426,11.629372 Q 7.2799442,11.343425 7.578889,10.836519 Q 7.8908314,10.329612 7.8908314,9.6667348 Q 7.8908314,9.0038572 7.578889,8.4969508 Q 7.2799442,7.9900444 6.7470426,7.7170948 Q 6.214141,7.4311477 5.5252682,7.4311477 Q 4.8363955,7.4311477 4.2904963,7.7170948 Q 3.7575947,7.9900444 3.4456523,8.4969508 Q 3.1467075,9.0038572 3.1467075,9.6667348 Q 3.1467075,10.329612 3.4456523,10.836519 Q 3.7575947,11.343425 4.2904963,11.629372 Q 4.8363955,11.91532 5.5252682,11.91532 Z M 12.808805,13.371051 Q 11.950964,13.371051 11.171108,13.137094 Q 10.404249,12.903137 9.9623311,12.565199 L 10.482235,11.577382 Q 10.924153,11.876327 11.574033,12.084288 Q 12.223913,12.29225 12.899789,12.29225 Q 13.770628,12.29225 14.147558,12.045296 Q 14.537486,11.798341 14.537486,11.356423 Q 14.537486,11.031483 14.303529,10.849516 Q 14.069573,10.66755 13.679645,10.576567 Q 13.302714,10.485584 12.834801,10.420596 Q 12.366887,10.34261 11.898973,10.238629 Q 11.43106,10.121651 11.041132,9.9266868 Q 10.651204,9.7187252 10.417247,9.36779 Q 10.18329,9.0038572 10.18329,8.4059676 Q 10.18329,7.7820828 10.534225,7.3141693 Q 10.885161,6.8462557 11.522043,6.5993013 Q 12.171923,6.3393493 13.05576,6.3393493 Q 13.731635,6.3393493 14.420508,6.5083181 Q 15.122378,6.6642893 15.564297,6.9632341 L 15.031395,7.9510516 Q 14.563481,7.6391092 14.056575,7.5221308 Q 13.549669,7.4051525 13.042762,7.4051525 Q 12.223913,7.4051525 11.820988,7.678102 Q 11.418062,7.938054 11.418062,8.3539772 Q 11.418062,8.7049124 11.652019,8.8998764 Q 11.898973,9.0818428 12.275904,9.1858236 Q 12.665832,9.2898044 13.133745,9.36779 Q 13.601659,9.432778 14.069573,9.5497564 Q 14.537486,9.6537372 14.914417,9.8487012 Q 15.304345,10.043665 15.538301,10.3946 Q 15.785256,10.745536 15.785256,11.330428 Q 15.785256,11.954312 15.421323,12.409228 Q 15.05739,12.864144 14.394513,13.124096 Q 13.731635,13.371051 12.808805,13.371051 Z"
           id="text5"
           style="font-weight:500;font-size:12.9976px;line-height:1;font-family:Montserrat;-inkscape-font-specification:'Montserrat Medium';letter-spacing:-0.658003px;fill:#ffffff;stroke-width:2.5;stroke-linecap:round;stroke-linejoin:round;paint-order:stroke fill markers"
           aria-label="gs" /></g></g></g></svg>
